#N canvas 927 78 1670 1194 10;
#X obj 181 158 s oscdata;
#X obj 1256 377 r oscdata;
#X floatatom 1217 456 5 0 0 0 - - -;
#X floatatom 1259 455 5 0 0 0 - - -;
#X floatatom 1299 454 5 0 0 0 - - -;
#X obj 149 121 dumpOSC 3333;
#X obj 167 194 route /skeletons/ID-centralXYZ;
#X floatatom 169 255 5 0 0 0 - - -;
#X floatatom 603 440 5 0 0 0 - - -;
#X floatatom 746 404 5 0 0 0 - - -;
#X obj 1257 400 route /skeletons/bones/leftArm;
#X obj 1257 422 unpack f f f f f f f f;
#X obj 169 227 unpack f f f f;
#X floatatom 1339 455 5 0 0 0 - - -;
#X floatatom 1380 455 5 0 0 0 - - -;
#X floatatom 1416 455 5 0 0 0 - - -;
#X floatatom 1455 455 5 0 0 0 - - -;
#X floatatom 1495 454 5 0 0 0 - - -;
#X obj 1228 575 r oscdata;
#X floatatom 1229 648 5 0 0 0 - - -;
#X floatatom 1246 668 5 0 0 0 - - -;
#X floatatom 1265 690 5 0 0 0 - - -;
#X obj 1229 620 unpack f f f f f f f f;
#X floatatom 1283 713 5 0 0 0 - - -;
#X floatatom 1302 738 5 0 0 0 - - -;
#X floatatom 1322 766 5 0 0 0 - - -;
#X floatatom 1340 799 5 0 0 0 - - -;
#X floatatom 1359 826 5 0 0 0 - - -;
#X obj 1229 598 route /skeletons/bones/leftLeg;
#X obj 949 552 r oscdata;
#X floatatom 951 811 5 0 0 0 - - -;
#X floatatom 967 787 5 0 0 0 - - -;
#X floatatom 986 762 5 0 0 0 - - -;
#X obj 950 597 unpack f f f f f f f f;
#X floatatom 1006 736 5 0 0 0 - - -;
#X floatatom 1023 709 5 0 0 0 - - -;
#X floatatom 1043 678 5 0 0 0 - - -;
#X floatatom 1060 652 5 0 0 0 - - -;
#X floatatom 1079 628 5 0 0 0 - - -;
#X obj 950 575 route /skeletons/bones/rightLeg;
#X obj 873 373 r oscdata;
#X floatatom 834 452 5 0 0 0 - - -;
#X floatatom 876 451 5 0 0 0 - - -;
#X floatatom 917 451 5 0 0 0 - - -;
#X obj 874 418 unpack f f f f f f f f;
#X floatatom 956 451 5 0 0 0 - - -;
#X floatatom 997 451 5 0 0 0 - - -;
#X floatatom 1033 451 5 0 0 0 - - -;
#X floatatom 1072 451 5 0 0 0 - - -;
#X floatatom 1112 450 5 0 0 0 - - -;
#X obj 874 396 route /skeletons/bones/rightArm;
#X obj 1159 180 r oscdata;
#X floatatom 1120 259 5 0 0 0 - - -;
#X floatatom 1162 258 5 0 0 0 - - -;
#X floatatom 1114 291 5 0 0 0 - - -;
#X floatatom 1163 290 5 0 0 0 - - -;
#X floatatom 1240 313 5 0 0 0 - - -;
#X floatatom 1281 312 5 0 0 0 - - -;
#X floatatom 1238 340 5 0 0 0 - - -;
#X floatatom 1281 339 5 0 0 0 - - -;
#X obj 1160 203 route /skeletons/bones/neckShoulder;
#X obj 1160 225 unpack f f f f f f f f f f f f;
#X floatatom 1025 317 5 0 0 0 - - -;
#X floatatom 1066 316 5 0 0 0 - - -;
#X floatatom 1023 344 5 0 0 0 - - -;
#X floatatom 1066 343 5 0 0 0 - - -;
#X obj 196 490 gemwin;
#X msg 186 446 create;
#X msg 245 447 destroy;
#X obj 121 455 tgl 15 0 empty empty empty 17 7 0 10 -262144 -1 -1 0
1;
#X obj 345 448 gemhead;
#X obj 441 579 colorRGB;
#X obj 441 602 rectangle 4 4;
#X obj 464 497 hsl 128 15 0 1 0 0 empty empty empty -2 -8 0 10 -258113
-1 -1 11339 1;
#X obj 744 496 hsl 128 15 0 1 0 0 empty empty empty -2 -8 0 10 -4032
-1 -1 5809 1;
#X obj 604 498 hsl 128 15 0 1 0 0 empty empty empty -2 -8 0 10 -4034
-1 -1 6656 1;
#X floatatom 771 466 5 0 0 0 - - -;
#X floatatom 811 597 5 0 0 0 - - -;
#X floatatom 757 562 5 0 0 0 - - -;
#X floatatom 822 567 5 0 0 0 - - -;
#X obj 749 435 * 5;
#X obj 0 839 osc~;
#X obj 68 927 dac~;
#X floatatom -32 363 5 0 0 0 - - -;
#X floatatom 435 408 5 0 0 0 - - -;
#X obj -32 385 * 100;
#X obj 112 844 osc~;
#X floatatom 33 356 5 0 0 0 - - -;
#X obj 33 387 * 100;
#X obj 178 762 mono-bitcrusher;
#X obj -35 680 mono-peakfilter-experiment;
#X obj -30 575 perk-cowbell;
#X obj 131 928 dac~;
#X floatatom 236 349 5 0 0 0 - - -;
#X obj 236 380 * 100;
#X obj 1445 913 osc~;
#X obj 1448 964 dac~;
#X obj 184 645 mono-specdelay;
#X floatatom 1432 805 5 0 0 0 - - -;
#X obj 1432 836 * 100;
#X msg 143 409 fullscreen \$1;
#X obj 159 337 tgl 15 0 empty empty empty 17 7 0 10 -262144 -1 -1 0
1;
#X connect 1 0 10 0;
#X connect 2 0 98 0;
#X connect 5 0 0 0;
#X connect 5 0 6 0;
#X connect 6 0 12 0;
#X connect 8 0 75 0;
#X connect 9 0 80 0;
#X connect 10 0 11 0;
#X connect 11 0 2 0;
#X connect 11 1 3 0;
#X connect 11 2 4 0;
#X connect 11 3 13 0;
#X connect 11 4 14 0;
#X connect 11 5 15 0;
#X connect 11 6 16 0;
#X connect 11 7 17 0;
#X connect 12 0 7 0;
#X connect 12 1 83 0;
#X connect 12 1 84 0;
#X connect 12 2 8 0;
#X connect 12 2 87 0;
#X connect 12 3 9 0;
#X connect 12 3 93 0;
#X connect 18 0 28 0;
#X connect 22 0 19 0;
#X connect 22 1 20 0;
#X connect 22 2 21 0;
#X connect 22 3 23 0;
#X connect 22 4 24 0;
#X connect 22 5 25 0;
#X connect 22 6 26 0;
#X connect 22 7 27 0;
#X connect 28 0 22 0;
#X connect 29 0 39 0;
#X connect 33 0 30 0;
#X connect 33 1 31 0;
#X connect 33 2 32 0;
#X connect 33 3 34 0;
#X connect 33 4 35 0;
#X connect 33 5 36 0;
#X connect 33 6 37 0;
#X connect 33 7 38 0;
#X connect 39 0 33 0;
#X connect 40 0 50 0;
#X connect 44 0 41 0;
#X connect 44 1 42 0;
#X connect 44 2 43 0;
#X connect 44 3 45 0;
#X connect 44 4 46 0;
#X connect 44 5 47 0;
#X connect 44 6 48 0;
#X connect 44 7 49 0;
#X connect 50 0 44 0;
#X connect 51 0 60 0;
#X connect 60 0 61 0;
#X connect 61 0 52 0;
#X connect 61 1 53 0;
#X connect 61 2 54 0;
#X connect 61 3 55 0;
#X connect 61 4 56 0;
#X connect 61 5 57 0;
#X connect 61 6 58 0;
#X connect 61 7 59 0;
#X connect 61 8 62 0;
#X connect 61 9 63 0;
#X connect 61 10 64 0;
#X connect 61 11 65 0;
#X connect 67 0 66 0;
#X connect 68 0 66 0;
#X connect 69 0 66 0;
#X connect 70 0 71 0;
#X connect 71 0 72 0;
#X connect 73 0 71 1;
#X connect 74 0 71 3;
#X connect 75 0 71 2;
#X connect 80 0 76 0;
#X connect 80 0 74 0;
#X connect 81 0 82 0;
#X connect 81 0 82 1;
#X connect 83 0 85 0;
#X connect 84 0 73 0;
#X connect 85 0 91 0;
#X connect 85 0 90 0;
#X connect 86 0 92 0;
#X connect 86 0 92 1;
#X connect 87 0 88 0;
#X connect 88 0 97 0;
#X connect 89 0 86 0;
#X connect 90 0 81 0;
#X connect 91 0 90 0;
#X connect 93 0 94 0;
#X connect 95 0 96 0;
#X connect 95 0 96 1;
#X connect 97 0 89 0;
#X connect 98 0 99 0;
#X connect 99 0 95 0;
#X connect 100 0 66 0;
#X connect 101 0 100 0;
